<svg xmlns="http://www.w3.org/2000/svg" viewBox="0 0 225.64 132.03"><defs><style>.cls-1{fill:#333;}.cls-2{fill:#f8cf0c;}.cls-3{fill:#ffac1b;}.cls-4{fill:#17a2d7;}.cls-5{fill:#f6e30a;}.cls-6{fill:#fff;}</style></defs><title>Element 2</title><g id="Ebene_2" data-name="Ebene 2"><g id="Ebene_1-2" data-name="Ebene 1"><path class="cls-1" d="M114.75,37.33,0,66s17.87,52.28,72.42,42.86S114.75,37.33,114.75,37.33Z"/><polygon class="cls-2" points="168.64 20.51 225.64 19.37 168.69 43.29 168.64 20.51"/><polygon class="cls-3" points="171.69 42.29 213.64 63.47 165.35 52.52 171.69 42.29"/><polygon class="cls-2" points="64.09 104.06 57.35 128.12 68.5 132.03 69.98 108.24 64.09 104.06"/><polygon class="cls-3" points="60.64 94.33 36.18 116.85 48.41 126.99 65.74 101.98 60.64 94.33"/><path class="cls-4" d="M59.65,79.89l42.63-60c.21-.29.42-.6.61-.91,2.54-4,17.34-27.56,50.15-4.12,23.52,16.8,21.92,27.61,14.08,37.72a25.41,25.41,0,0,0-5,19.34c2.51,16.85,1.6,46.75-35.55,49.61-26.1,2-42.63,0-52.61-2.53a25,25,0,0,1-18.11-18l-.09-.36A25.15,25.15,0,0,1,59.65,79.89Z"/><path d="M89.35,38.07l76,17.1s29-32.66-9.55-50.12C140.15-2,124.41-2,111.64,7.18,101.61,14.35,93.24,28.87,89.35,38.07Z"/><path class="cls-5" d="M106.58,43.29l-95.94,24S25.58,111,71.19,103.11,106.58,43.29,106.58,43.29Z"/><circle class="cls-6" cx="140.26" cy="30.51" r="12.78"/><circle cx="140.26" cy="30.51" r="5.72"/></g></g></svg>